{
    "asset" : {
        "generator" : "Khronos glTF Blender I/O v1.3.48",
        "version" : "2.0"
    },
    "scene" : 0,
    "scenes" : [
        {
            "name" : "Scene",
            "nodes" : [
                8
            ]
        }
    ],
    "nodes" : [
        {
            "mesh" : 0,
            "name" : "Mesh_0.009"
        },
        {
            "mesh" : 1,
            "name" : "Mesh_1.007"
        },
        {
            "mesh" : 2,
            "name" : "Mesh_2.007"
        },
        {
            "mesh" : 3,
            "name" : "Mesh_3.006"
        },
        {
            "mesh" : 4,
            "name" : "Mesh_4.006"
        },
        {
            "mesh" : 5,
            "name" : "Mesh_5.005"
        },
        {
            "children" : [
                0,
                1,
                2,
                3,
                4,
                5
            ],
            "name" : "ComputerVirus.obj.cleaner.materialmerger.gles"
        },
        {
            "children" : [
                6
            ],
            "name" : "RootNode (model correction matrix)"
        },
        {
            "children" : [
                7
            ],
            "name" : "RootNode (gltf orientation matrix)",
            "rotation" : [
                -0.7071068286895752,
                0,
                0,
                0.7071068286895752
            ]
        }
    ],
    "materials" : [
        {
            "doubleSided" : true,
            "emissiveFactor" : [
                0,
                0,
                0
            ],
            "name" : "BluePlastic",
            "pbrMetallicRoughness" : {
                "baseColorFactor" : [
                    0.03492100164294243,
                    0.07209999859333038,
                    0.800000011920929,
                    1
                ],
                "metallicFactor" : 0,
                "roughnessFactor" : 0.806350827217102
            }
        },
        {
            "alphaMode" : "BLEND",
            "doubleSided" : true,
            "emissiveFactor" : [
                0,
                0,
                0
            ],
            "name" : "ClearPlastic",
            "pbrMetallicRoughness" : {
                "baseColorFactor" : [
                    0.800000011920929,
                    0.800000011920929,
                    0.800000011920929,
                    0.20000000298023224
                ],
                "metallicRoughnessTexture" : {
                    "index" : 0,
                    "texCoord" : 0
                }
            }
        },
        {
            "doubleSided" : true,
            "emissiveFactor" : [
                0,
                0,
                0
            ],
            "name" : "GrayPlastic",
            "pbrMetallicRoughness" : {
                "baseColorFactor" : [
                    0.07323600351810455,
                    0.07323600351810455,
                    0.07323600351810455,
                    1
                ],
                "metallicRoughnessTexture" : {
                    "index" : 1,
                    "texCoord" : 0
                }
            }
        },
        {
            "doubleSided" : true,
            "emissiveFactor" : [
                0,
                0,
                0
            ],
            "name" : "GreenPlastic",
            "pbrMetallicRoughness" : {
                "baseColorFactor" : [
                    0.051468998193740845,
                    0.35795700550079346,
                    0.02848000079393387,
                    1
                ],
                "metallicFactor" : 0,
                "roughnessFactor" : 0.806350827217102
            }
        },
        {
            "doubleSided" : true,
            "emissiveFactor" : [
                0,
                0,
                0
            ],
            "name" : "RedPlastic",
            "pbrMetallicRoughness" : {
                "baseColorFactor" : [
                    0.800000011920929,
                    0.019046999514102936,
                    0.019046999514102936,
                    1
                ],
                "metallicFactor" : 0,
                "roughnessFactor" : 0.806350827217102
            }
        },
        {
            "doubleSided" : true,
            "emissiveFactor" : [
                0,
                0,
                0
            ],
            "name" : "YellowPlastic",
            "pbrMetallicRoughness" : {
                "baseColorFactor" : [
                    0.800000011920929,
                    0.6676560044288635,
                    0.02420699968934059,
                    1
                ],
                "metallicFactor" : 0,
                "roughnessFactor" : 0.806350827217102
            }
        }
    ],
    "meshes" : [
        {
            "name" : "Mesh_0.009",
            "primitives" : [
                {
                    "attributes" : {
                        "POSITION" : 0,
                        "NORMAL" : 1,
                        "TEXCOORD_0" : 2
                    },
                    "indices" : 3,
                    "material" : 0
                }
            ]
        },
        {
            "name" : "Mesh_1.007",
            "primitives" : [
                {
                    "attributes" : {
                        "POSITION" : 4,
                        "NORMAL" : 5,
                        "TEXCOORD_0" : 6
                    },
                    "indices" : 7,
                    "material" : 1
                }
            ]
        },
        {
            "name" : "Mesh_2.007",
            "primitives" : [
                {
                    "attributes" : {
                        "POSITION" : 8,
                        "NORMAL" : 9,
                        "TEXCOORD_0" : 10
                    },
                    "indices" : 11,
                    "material" : 2
                }
            ]
        },
        {
            "name" : "Mesh_3.006",
            "primitives" : [
                {
                    "attributes" : {
                        "POSITION" : 12,
                        "NORMAL" : 13,
                        "TEXCOORD_0" : 14
                    },
                    "indices" : 15,
                    "material" : 3
                }
            ]
        },
        {
            "name" : "Mesh_4.006",
            "primitives" : [
                {
                    "attributes" : {
                        "POSITION" : 16,
                        "NORMAL" : 17,
                        "TEXCOORD_0" : 18
                    },
                    "indices" : 19,
                    "material" : 4
                }
            ]
        },
        {
            "name" : "Mesh_5.005",
            "primitives" : [
                {
                    "attributes" : {
                        "POSITION" : 20,
                        "NORMAL" : 21,
                        "TEXCOORD_0" : 22
                    },
                    "indices" : 23,
                    "material" : 5
                }
            ]
        }
    ],
    "textures" : [
        {
            "source" : 0
        },
        {
            "source" : 0
        }
    ],
    "images" : [
        {
            "bufferView" : 8,
            "mimeType" : "image/png",
            "name" : "ClearPlastic_metallicRoughness"
        }
    ],
    "accessors" : [
        {
            "bufferView" : 0,
            "componentType" : 5126,
            "count" : 539,
            "max" : [
                0.15040600299835205,
                0.16234099864959717,
                3.9812450408935547
            ],
            "min" : [
                -0.12304099649190903,
                -2.0442349910736084,
                0.02948400005698204
            ],
            "type" : "VEC3"
        },
        {
            "bufferView" : 1,
            "componentType" : 5126,
            "count" : 539,
            "type" : "VEC3"
        },
        {
            "bufferView" : 2,
            "componentType" : 5126,
            "count" : 539,
            "type" : "VEC2"
        },
        {
            "bufferView" : 3,
            "componentType" : 5123,
            "count" : 2304,
            "type" : "SCALAR"
        },
        {
            "bufferView" : 4,
            "componentType" : 5126,
            "count" : 3806,
            "max" : [
                0.47016099095344543,
                0.6110640168190002,
                4.105971813201904
            ],
            "min" : [
                -0.47016099095344543,
                -0.2659839987754822,
                2.310236930847168
            ],
            "type" : "VEC3"
        },
        {
            "bufferView" : 5,
            "componentType" : 5126,
            "count" : 3806,
            "type" : "VEC3"
        },
        {
            "bufferView" : 6,
            "componentType" : 5126,
            "count" : 3806,
            "type" : "VEC2"
        },
        {
            "bufferView" : 7,
            "componentType" : 5123,
            "count" : 9114,
            "type" : "SCALAR"
        },
        {
            "bufferView" : 9,
            "componentType" : 5126,
            "count" : 3796,
            "max" : [
                2.056746006011963,
                2.056746006011963,
                3.9730749130249023
            ],
            "min" : [
                -2.056746006011963,
                -2.056746006011963,
                0.041749998927116394
            ],
            "type" : "VEC3"
        },
        {
            "bufferView" : 10,
            "componentType" : 5126,
            "count" : 3796,
            "type" : "VEC3"
        },
        {
            "bufferView" : 11,
            "componentType" : 5126,
            "count" : 3796,
            "type" : "VEC2"
        },
        {
            "bufferView" : 12,
            "componentType" : 5123,
            "count" : 13692,
            "type" : "SCALAR"
        },
        {
            "bufferView" : 13,
            "componentType" : 5126,
            "count" : 539,
            "max" : [
                0.12304099649190903,
                2.0442349910736084,
                3.9812450408935547
            ],
            "min" : [
                -0.158050999045372,
                -0.016385000199079514,
                0.02948400005698204
            ],
            "type" : "VEC3"
        },
        {
            "bufferView" : 14,
            "componentType" : 5126,
            "count" : 539,
            "type" : "VEC3"
        },
        {
            "bufferView" : 15,
            "componentType" : 5126,
            "count" : 539,
            "type" : "VEC2"
        },
        {
            "bufferView" : 16,
            "componentType" : 5123,
            "count" : 2304,
            "type" : "SCALAR"
        },
        {
            "bufferView" : 17,
            "componentType" : 5126,
            "count" : 539,
            "max" : [
                2.0442349910736084,
                0.16234099864959717,
                3.9812450408935547
            ],
            "min" : [
                0.07245799899101257,
                -0.12304099649190903,
                0.02948400005698204
            ],
            "type" : "VEC3"
        },
        {
            "bufferView" : 18,
            "componentType" : 5126,
            "count" : 539,
            "type" : "VEC3"
        },
        {
            "bufferView" : 19,
            "componentType" : 5126,
            "count" : 539,
            "type" : "VEC2"
        },
        {
            "bufferView" : 20,
            "componentType" : 5123,
            "count" : 2304,
            "type" : "SCALAR"
        },
        {
            "bufferView" : 21,
            "componentType" : 5126,
            "count" : 539,
            "max" : [
                -0.0702819973230362,
                0.16234099864959717,
                3.9812450408935547
            ],
            "min" : [
                -2.0442349910736084,
                -0.016294000670313835,
                0.02948400005698204
            ],
            "type" : "VEC3"
        },
        {
            "bufferView" : 22,
            "componentType" : 5126,
            "count" : 539,
            "type" : "VEC3"
        },
        {
            "bufferView" : 23,
            "componentType" : 5126,
            "count" : 539,
            "type" : "VEC2"
        },
        {
            "bufferView" : 24,
            "componentType" : 5123,
            "count" : 2304,
            "type" : "SCALAR"
        }
    ],
    "bufferViews" : [
        {
            "buffer" : 0,
            "byteLength" : 6468,
            "byteOffset" : 0
        },
        {
            "buffer" : 0,
            "byteLength" : 6468,
            "byteOffset" : 6468
        },
        {
            "buffer" : 0,
            "byteLength" : 4312,
            "byteOffset" : 12936
        },
        {
            "buffer" : 0,
            "byteLength" : 4608,
            "byteOffset" : 17248
        },
        {
            "buffer" : 0,
            "byteLength" : 45672,
            "byteOffset" : 21856
        },
        {
            "buffer" : 0,
            "byteLength" : 45672,
            "byteOffset" : 67528
        },
        {
            "buffer" : 0,
            "byteLength" : 30448,
            "byteOffset" : 113200
        },
        {
            "buffer" : 0,
            "byteLength" : 18228,
            "byteOffset" : 143648
        },
        {
            "buffer" : 0,
            "byteLength" : 735318,
            "byteOffset" : 161876
        },
        {
            "buffer" : 0,
            "byteLength" : 45552,
            "byteOffset" : 897196
        },
        {
            "buffer" : 0,
            "byteLength" : 45552,
            "byteOffset" : 942748
        },
        {
            "buffer" : 0,
            "byteLength" : 30368,
            "byteOffset" : 988300
        },
        {
            "buffer" : 0,
            "byteLength" : 27384,
            "byteOffset" : 1018668
        },
        {
            "buffer" : 0,
            "byteLength" : 6468,
            "byteOffset" : 1046052
        },
        {
            "buffer" : 0,
            "byteLength" : 6468,
            "byteOffset" : 1052520
        },
        {
            "buffer" : 0,
            "byteLength" : 4312,
            "byteOffset" : 1058988
        },
        {
            "buffer" : 0,
            "byteLength" : 4608,
            "byteOffset" : 1063300
        },
        {
            "buffer" : 0,
            "byteLength" : 6468,
            "byteOffset" : 1067908
        },
        {
            "buffer" : 0,
            "byteLength" : 6468,
            "byteOffset" : 1074376
        },
        {
            "buffer" : 0,
            "byteLength" : 4312,
            "byteOffset" : 1080844
        },
        {
            "buffer" : 0,
            "byteLength" : 4608,
            "byteOffset" : 1085156
        },
        {
            "buffer" : 0,
            "byteLength" : 6468,
            "byteOffset" : 1089764
        },
        {
            "buffer" : 0,
            "byteLength" : 6468,
            "byteOffset" : 1096232
        },
        {
            "buffer" : 0,
            "byteLength" : 4312,
            "byteOffset" : 1102700
        },
        {
            "buffer" : 0,
            "byteLength" : 4608,
            "byteOffset" : 1107012
        }
    ],
    "buffers" : [
        {
            "byteLength" : 1111620,
            "uri" : "data:application/octet-stream;base64,"
        }
    ]
}
